<svg width="22" height="22" viewBox="0 0 22 22" fill="none" xmlns="http://www.w3.org/2000/svg">
<path d="M20.75 4.75C20.75 5.75 19.75 7.75 15.75 7.75C11.75 7.75 10.75 5.75 10.75 4.75C10.75 5.75 9.75 7.75 5.75 7.75C1.75 7.75 0.75 5.75 0.75 4.75M8.75 2.25C8.41667 1.75 7.25 0.75 5.75 0.75M12.75 2.25C13.0833 1.75 14.25 0.75 15.75 0.75M2.75 7.75V8.75C2.75 10.0703 3.01603 11.3698 3.31009 12.6495C3.8494 14.9964 4.11933 18.3305 2.75 20.75M18.75 7.75V8.75C18.75 10.0703 18.484 11.3698 18.1899 12.6495C17.6506 14.9964 17.3807 18.3305 18.75 20.75M14.75 17.75C13.265 18.929 12.394 19.119 11.0729 18.0324C10.8826 17.8758 10.6082 17.865 10.4093 18.0105C9.01426 19.0319 8.14943 19.0411 6.75 17.75M14.75 12.75C13.265 13.929 12.394 14.119 11.0729 13.0324C10.8826 12.8758 10.6082 12.865 10.4093 13.0105C9.01426 14.0319 8.14943 14.0411 6.75 12.75M10.75 12.75V10.75" stroke="#141B34" stroke-width="1.5" stroke-linecap="round" stroke-linejoin="round"/>
</svg>
