<svg width="20" height="22" viewBox="0 0 20 22" fill="none" xmlns="http://www.w3.org/2000/svg">
<path d="M12.6182 9.13268L13.313 9.41501H13.313L12.6182 9.13268ZM6.88185 9.13268L6.18702 9.41501V9.41501L6.88185 9.13268ZM6.88185 7.36732L6.18702 7.08499V7.08499L6.88185 7.36732ZM12.6182 7.36732L13.313 7.08499V7.08499L12.6182 7.36732ZM12.6182 12.1327L13.313 12.415H13.313L12.6182 12.1327ZM6.88185 12.1327L6.18702 12.415V12.415L6.88185 12.1327ZM6.88185 10.3673L6.18702 10.085V10.085L6.88185 10.3673ZM12.6182 10.3673L13.313 10.085V10.085L12.6182 10.3673ZM7.07061 16.2537L7.11595 17.0023V17.0023L7.07061 16.2537ZM4.53849 17.5128C4.4075 17.9058 4.61987 18.3305 5.01283 18.4615C5.40579 18.5925 5.83053 18.3801 5.96151 17.9872L5.25 17.75L4.53849 17.5128ZM5.33586 17.504L6.03173 17.7838L6.03173 17.7838L5.33586 17.504ZM13.5385 17.9872C13.6695 18.3801 14.0942 18.5925 14.4872 18.4615C14.8801 18.3305 15.0925 17.9058 14.9615 17.5128L14.25 17.75L13.5385 17.9872ZM14.1641 17.504L14.86 17.2243H14.86L14.1641 17.504ZM12.4294 16.2537L12.384 17.0023L12.4294 16.2537ZM10.5 16.25C10.5 15.8358 10.1642 15.5 9.75 15.5C9.33579 15.5 9 15.8358 9 16.25H9.75H10.5ZM16.75 21.5C17.1642 21.5 17.5 21.1642 17.5 20.75C17.5 20.3358 17.1642 20 16.75 20V20.75V21.5ZM2.75 20C2.33579 20 2 20.3358 2 20.75C2 21.1642 2.33579 21.5 2.75 21.5V20.75V20ZM17.5459 5.84525L18.1154 5.35716V5.35716L17.5459 5.84525ZM18.1806 7.73809C18.4501 8.05259 18.9236 8.08901 19.2381 7.81944C19.5526 7.54988 19.589 7.0764 19.3194 6.76191L18.75 7.25L18.1806 7.73809ZM1.95407 5.84525L1.38463 5.35716L1.38463 5.35716L1.95407 5.84525ZM0.180557 6.76191C-0.0890091 7.0764 -0.0525879 7.54988 0.261907 7.81944C0.576401 8.08901 1.04988 8.05259 1.31944 7.73809L0.75 7.25L0.180557 6.76191ZM3.87623 4.02446L3.56284 3.34308L3.56284 3.34308L3.87623 4.02446ZM15.6238 4.02446L15.9372 3.34308V3.34308L15.6238 4.02446ZM9 6.75C9 7.16421 9.33579 7.5 9.75 7.5C10.1642 7.5 10.5 7.16421 10.5 6.75H9.75H9ZM10.5 0.75C10.5 0.335786 10.1642 0 9.75 0C9.33579 0 9 0.335786 9 0.75H9.75H10.5ZM11.2214 6.75V6H8.27859V6.75V7.5H11.2214V6.75ZM8.27859 9.75V10.5H11.2214V9.75V9H8.27859V9.75ZM6.88185 7.36732L6.18702 7.08499C6.04614 7.43169 6 7.87669 6 8.25C6 8.62331 6.04614 9.06831 6.18702 9.41501L6.88185 9.13268L7.57668 8.85036C7.54176 8.7644 7.5 8.54304 7.5 8.25C7.5 7.95696 7.54176 7.7356 7.57668 7.64964L6.88185 7.36732ZM12.6182 7.36732L11.9233 7.64964C11.9582 7.7356 12 7.95696 12 8.25C12 8.54304 11.9582 8.7644 11.9233 8.85036L12.6182 9.13268L13.313 9.41501C13.4539 9.06831 13.5 8.62331 13.5 8.25C13.5 7.87669 13.4539 7.43169 13.313 7.08499L12.6182 7.36732ZM11.2214 9.75V10.5C11.4747 10.5 11.882 10.5057 12.2593 10.3879C12.6951 10.2518 13.0938 9.95448 13.313 9.41501L12.6182 9.13268L11.9233 8.85036C11.9009 8.90544 11.8825 8.92135 11.8789 8.92449C11.8735 8.92921 11.8573 8.94201 11.8123 8.95607C11.7634 8.97133 11.6922 8.98443 11.5871 8.99194C11.4804 8.99955 11.3654 9 11.2214 9V9.75ZM11.2214 6.75V7.5C11.3654 7.5 11.4804 7.50045 11.5871 7.50806C11.6922 7.51557 11.7634 7.52867 11.8123 7.54393C11.8573 7.55799 11.8735 7.57079 11.8789 7.57551C11.8825 7.57865 11.9009 7.59456 11.9233 7.64964L12.6182 7.36732L13.313 7.08499C13.0938 6.54552 12.6951 6.24817 12.2593 6.11211C11.882 5.99428 11.4747 6 11.2214 6V6.75ZM8.27859 6.75V6C8.0253 6 7.618 5.99428 7.24065 6.11211C6.80491 6.24817 6.40621 6.54552 6.18702 7.08499L6.88185 7.36732L7.57668 7.64964C7.59906 7.59456 7.61752 7.57865 7.6211 7.57551C7.62649 7.57079 7.64271 7.55799 7.68774 7.54393C7.73661 7.52867 7.80776 7.51557 7.91293 7.50806C8.01957 7.50045 8.13462 7.5 8.27859 7.5V6.75ZM8.27859 9.75V9C8.13462 9 8.01957 8.99955 7.91293 8.99194C7.80776 8.98443 7.73661 8.97133 7.68774 8.95607C7.64271 8.94201 7.62649 8.92921 7.6211 8.92449C7.61752 8.92135 7.59906 8.90544 7.57668 8.85036L6.88185 9.13268L6.18702 9.41501C6.40621 9.95448 6.80491 10.2518 7.24065 10.3879C7.618 10.5057 8.02531 10.5 8.27859 10.5V9.75ZM8.27859 12.75V13.5H11.2214V12.75V12H8.27859V12.75ZM6.88185 10.3673L6.18702 10.085C6.04614 10.4317 6 10.8767 6 11.25C6 11.6233 6.04614 12.0683 6.18702 12.415L6.88185 12.1327L7.57668 11.8504C7.54176 11.7644 7.5 11.543 7.5 11.25C7.5 10.957 7.54176 10.7356 7.57668 10.6496L6.88185 10.3673ZM12.6182 10.3673L11.9233 10.6496C11.9582 10.7356 12 10.957 12 11.25C12 11.543 11.9582 11.7644 11.9233 11.8504L12.6182 12.1327L13.313 12.415C13.4539 12.0683 13.5 11.6233 13.5 11.25C13.5 10.8767 13.4539 10.4317 13.313 10.085L12.6182 10.3673ZM11.2214 12.75V13.5C11.4747 13.5 11.882 13.5057 12.2593 13.3879C12.6951 13.2518 13.0938 12.9545 13.313 12.415L12.6182 12.1327L11.9233 11.8504C11.9009 11.9054 11.8825 11.9214 11.8789 11.9245C11.8735 11.9292 11.8573 11.942 11.8123 11.9561C11.7634 11.9713 11.6922 11.9844 11.5871 11.9919C11.4804 11.9995 11.3654 12 11.2214 12V12.75ZM11.2214 9.75V10.5C11.3654 10.5 11.4804 10.5005 11.5871 10.5081C11.6922 10.5156 11.7634 10.5287 11.8123 10.5439C11.8573 10.558 11.8735 10.5708 11.8789 10.5755C11.8825 10.5786 11.9009 10.5946 11.9233 10.6496L12.6182 10.3673L13.313 10.085C13.0938 9.54552 12.6951 9.24817 12.2593 9.11211C11.882 8.99428 11.4747 9 11.2214 9V9.75ZM8.27859 9.75V9C8.02531 9 7.618 8.99428 7.24065 9.11211C6.80491 9.24817 6.40621 9.54552 6.18702 10.085L6.88185 10.3673L7.57668 10.6496C7.59906 10.5946 7.61752 10.5786 7.6211 10.5755C7.62649 10.5708 7.64271 10.558 7.68774 10.5439C7.73661 10.5287 7.80776 10.5156 7.91293 10.5081C8.01957 10.5005 8.13462 10.5 8.27859 10.5V9.75ZM8.27859 12.75V12C8.13462 12 8.01957 11.9995 7.91293 11.9919C7.80776 11.9844 7.73661 11.9713 7.68774 11.9561C7.64271 11.942 7.62649 11.9292 7.6211 11.9245C7.61752 11.9214 7.59906 11.9054 7.57668 11.8504L6.88185 12.1327L6.18702 12.415C6.40621 12.9545 6.80491 13.2518 7.24065 13.3879C7.618 13.5057 8.02531 13.5 8.27859 13.5V12.75ZM12.1689 16.25V15.5H7.33114V16.25V17H12.1689V16.25ZM7.33114 16.25V15.5C7.20769 15.5 7.11381 15.4997 7.02528 15.505L7.07061 16.2537L7.11595 17.0023C7.14821 17.0003 7.18775 17 7.33114 17V16.25ZM5.25 17.75L5.96151 17.9872C6.00685 17.8511 6.01967 17.8137 6.03173 17.7838L5.33586 17.504L4.63998 17.2242C4.6069 17.3065 4.57753 17.3957 4.53849 17.5128L5.25 17.75ZM7.07061 16.2537L7.02528 15.505C5.96484 15.5693 5.03625 16.2385 4.63998 17.2243L5.33586 17.504L6.03173 17.7838C6.21185 17.3357 6.63394 17.0315 7.11595 17.0023L7.07061 16.2537ZM14.25 17.75L14.9615 17.5128C14.9225 17.3957 14.8931 17.3065 14.86 17.2243L14.1641 17.504L13.4683 17.7838C13.4803 17.8137 13.4931 17.8512 13.5385 17.9872L14.25 17.75ZM12.1689 16.25V17C12.3122 17 12.3518 17.0003 12.384 17.0023L12.4294 16.2537L12.4747 15.505C12.3862 15.4997 12.2923 15.5 12.1689 15.5V16.25ZM14.1641 17.504L14.86 17.2243C14.4638 16.2385 13.5352 15.5693 12.4747 15.505L12.4294 16.2537L12.384 17.0023C12.8661 17.0315 13.2881 17.3357 13.4683 17.7838L14.1641 17.504ZM9.75 16.25H9V20.75H9.75H10.5V16.25H9.75ZM9.75 20.75V21.5H16.75V20.75V20H9.75V20.75ZM9.75 20.75V20H2.75V20.75V21.5H9.75V20.75ZM17.5459 5.84525L16.9765 6.33335L18.1806 7.73809L18.75 7.25L19.3194 6.76191L18.1154 5.35716L17.5459 5.84525ZM1.95407 5.84525L1.38463 5.35716L0.180557 6.76191L0.75 7.25L1.31944 7.73809L2.52351 6.33335L1.95407 5.84525ZM12.9904 3.75V3H6.50961V3.75V4.5H12.9904V3.75ZM1.95407 5.84525L2.52351 6.33335C3.4518 5.25035 3.77695 4.89565 4.18963 4.70585L3.87623 4.02446L3.56284 3.34308C2.78204 3.70219 2.22358 4.37839 1.38463 5.35716L1.95407 5.84525ZM6.50961 3.75V3C5.22049 3 4.34364 2.98396 3.56284 3.34308L3.87623 4.02446L4.18963 4.70585C4.60231 4.51604 5.08322 4.5 6.50961 4.5V3.75ZM17.5459 5.84525L18.1154 5.35716C17.2764 4.37839 16.718 3.70219 15.9372 3.34308L15.6238 4.02446L15.3104 4.70585C15.7231 4.89565 16.0482 5.25035 16.9765 6.33335L17.5459 5.84525ZM12.9904 3.75V4.5C14.4168 4.5 14.8977 4.51604 15.3104 4.70585L15.6238 4.02446L15.9372 3.34308C15.1564 2.98396 14.2795 3 12.9904 3V3.75ZM9.75 6.75H10.5V0.75H9.75H9V6.75H9.75Z" fill="#141B34"/>
</svg>
