<svg width="20" height="22" viewBox="0 0 20 22" fill="none" xmlns="http://www.w3.org/2000/svg">
<path d="M7.35049 8.51647L6.61 8.39739V8.39739L7.35049 8.51647ZM6.89248 11.3646L7.63297 11.4836V11.4836L6.89248 11.3646ZM12.6075 11.3646L13.348 11.2455V11.2455L12.6075 11.3646ZM12.1495 8.51646L12.89 8.39739V8.39739L12.1495 8.51646ZM12.5312 13.2045L13.0678 13.7284V13.7284L12.5312 13.2045ZM6.96883 13.2045L6.43217 13.7284V13.7284L6.96883 13.2045ZM7.8393 7.11842L8.29705 7.71253L8.29705 7.71253L7.8393 7.11842ZM11.6607 7.11842L11.203 7.71253V7.71253L11.6607 7.11842ZM7.07061 16.2537L7.11595 17.0023V17.0023L7.07061 16.2537ZM4.53849 17.5128C4.4075 17.9058 4.61987 18.3305 5.01283 18.4615C5.40579 18.5925 5.83053 18.3801 5.96151 17.9872L5.25 17.75L4.53849 17.5128ZM5.33586 17.504L6.03173 17.7838L6.03173 17.7838L5.33586 17.504ZM13.5385 17.9872C13.6695 18.3801 14.0942 18.5925 14.4872 18.4615C14.8801 18.3305 15.0925 17.9058 14.9615 17.5128L14.25 17.75L13.5385 17.9872ZM14.1641 17.504L14.86 17.2243H14.86L14.1641 17.504ZM12.4294 16.2537L12.384 17.0023L12.4294 16.2537ZM10.5 16.25C10.5 15.8358 10.1642 15.5 9.75 15.5C9.33579 15.5 9 15.8358 9 16.25H9.75H10.5ZM16.75 21.5C17.1642 21.5 17.5 21.1642 17.5 20.75C17.5 20.3358 17.1642 20 16.75 20V20.75V21.5ZM2.75 20C2.33579 20 2 20.3358 2 20.75C2 21.1642 2.33579 21.5 2.75 21.5V20.75V20ZM15.951 4.25122L16.5366 3.7827V3.7827L15.951 4.25122ZM17.8735 6.65434L17.2878 7.12286V7.12287L17.8735 6.65434ZM3.54902 4.25122L2.96337 3.7827V3.7827L3.54902 4.25122ZM1.62653 6.65434L2.21218 7.12287L2.21218 7.12286L1.62653 6.65434ZM18 12.75C18 13.1642 18.3358 13.5 18.75 13.5C19.1642 13.5 19.5 13.1642 19.5 12.75H18.75H18ZM0 12.75C0 13.1642 0.335786 13.5 0.75 13.5C1.16421 13.5 1.5 13.1642 1.5 12.75H0.75H0ZM0.862743 7.78955L1.57046 8.0378H1.57046L0.862743 7.78955ZM18.6373 7.78955L17.9295 8.0378V8.0378L18.6373 7.78955ZM14.6551 2.94739L14.98 2.27142V2.27142L14.6551 2.94739ZM0.75 10C0.335786 10 0 10.3358 0 10.75C0 11.1642 0.335786 11.5 0.75 11.5V10.75V10ZM3.75 11.5C4.16421 11.5 4.5 11.1642 4.5 10.75C4.5 10.3358 4.16421 10 3.75 10V10.75V11.5ZM18.75 11.5C19.1642 11.5 19.5 11.1642 19.5 10.75C19.5 10.3358 19.1642 10 18.75 10V10.75V11.5ZM15.75 10C15.3358 10 15 10.3358 15 10.75C15 11.1642 15.3358 11.5 15.75 11.5V10.75V10ZM9 6.75C9 7.16421 9.33579 7.5 9.75 7.5C10.1642 7.5 10.5 7.16421 10.5 6.75H9.75H9ZM10.5 0.75C10.5 0.335786 10.1642 0 9.75 0C9.33579 0 9 0.335786 9 0.75H9.75H10.5ZM7.35049 8.51647L6.61 8.39739L6.152 11.2455L6.89248 11.3646L7.63297 11.4836L8.09098 8.63554L7.35049 8.51647ZM12.6075 11.3646L13.348 11.2455L12.89 8.39739L12.1495 8.51646L11.409 8.63554L11.867 11.4836L12.6075 11.3646ZM12.6075 11.3646L11.867 11.4836C11.9522 12.0132 11.9996 12.3218 12 12.5414C12.0002 12.6404 11.9896 12.6821 11.9862 12.6927C11.985 12.6965 11.9854 12.6942 11.9885 12.6889C11.9918 12.6835 11.9946 12.6804 11.9945 12.6806L12.5312 13.2045L13.0678 13.7284C13.4172 13.3706 13.5008 12.9371 13.5 12.5384C13.4993 12.172 13.425 11.7244 13.348 11.2455L12.6075 11.3646ZM6.89248 11.3646L6.152 11.2455C6.07499 11.7244 6.00075 12.172 6.00001 12.5384C5.9992 12.9371 6.08282 13.3706 6.43217 13.7284L6.96883 13.2045L7.50548 12.6806C7.50536 12.6804 7.50822 12.6835 7.51146 12.6889C7.51463 12.6943 7.515 12.6965 7.51377 12.6927C7.51039 12.6821 7.4998 12.6404 7.5 12.5414C7.50045 12.3218 7.54782 12.0132 7.63297 11.4836L6.89248 11.3646ZM7.35049 8.51647L8.09098 8.63554C8.15689 8.22564 8.19565 7.9955 8.24543 7.83417C8.26744 7.76283 8.28432 7.73121 8.29142 7.71972C8.29581 7.71261 8.29598 7.71335 8.29705 7.71253L7.8393 7.11842L7.38156 6.5243C7.06752 6.76626 6.90883 7.07844 6.81211 7.39189C6.72407 7.67723 6.66908 8.03004 6.61 8.39739L7.35049 8.51647ZM12.1495 8.51646L12.89 8.39739C12.8309 8.03004 12.7759 7.67723 12.6879 7.39189C12.5912 7.07844 12.4325 6.76626 12.1184 6.5243L11.6607 7.11842L11.203 7.71253C11.204 7.71335 11.2042 7.71261 11.2086 7.71972C11.2157 7.73121 11.2326 7.76283 11.2546 7.83417C11.3044 7.9955 11.3431 8.22564 11.409 8.63554L12.1495 8.51646ZM7.8393 7.11842L8.29705 7.71253C8.28648 7.72068 8.31144 7.70014 8.4022 7.66846C8.4865 7.63903 8.60021 7.6094 8.742 7.58335C9.02583 7.5312 9.37731 7.50149 9.74069 7.50005C10.1042 7.49861 10.4566 7.52556 10.7428 7.57684C10.8857 7.60245 11.0008 7.63214 11.087 7.66223C11.1787 7.69425 11.2082 7.71659 11.203 7.71253L11.6607 7.11842L12.1184 6.5243C11.8046 6.28252 11.3707 6.16547 11.0074 6.10036C10.6128 6.02965 10.1672 5.99835 9.73475 6.00007C9.30215 6.00178 8.85969 6.03662 8.47094 6.10805C8.11596 6.17327 7.68739 6.28867 7.38156 6.52431L7.8393 7.11842ZM6.96883 13.2045L6.43217 13.7284C6.63089 13.932 6.89198 14.0548 7.10626 14.1343C7.33718 14.2199 7.60062 14.2858 7.87301 14.3368C8.41919 14.439 9.06795 14.493 9.70723 14.4994C10.346 14.5057 11.0038 14.4648 11.5666 14.3653C11.8477 14.3156 12.1221 14.2484 12.3657 14.1569C12.5979 14.0698 12.8626 13.9386 13.0678 13.7284L12.5312 13.2045L11.9945 12.6806C12.0106 12.664 11.9804 12.6994 11.8386 12.7526C11.7083 12.8015 11.5297 12.8486 11.3055 12.8882C10.8579 12.9673 10.2966 13.0051 9.72214 12.9994C9.14817 12.9937 8.58957 12.9449 8.1489 12.8624C7.92788 12.821 7.75303 12.7743 7.62763 12.7278C7.48559 12.6751 7.47233 12.6466 7.50548 12.6806L6.96883 13.2045ZM12.1689 16.25V15.5H7.33114V16.25V17H12.1689V16.25ZM7.33114 16.25V15.5C7.20769 15.5 7.11381 15.4997 7.02528 15.505L7.07061 16.2537L7.11595 17.0023C7.14821 17.0003 7.18775 17 7.33114 17V16.25ZM5.25 17.75L5.96151 17.9872C6.00685 17.8511 6.01967 17.8137 6.03173 17.7838L5.33586 17.504L4.63998 17.2242C4.6069 17.3065 4.57753 17.3957 4.53849 17.5128L5.25 17.75ZM7.07061 16.2537L7.02528 15.505C5.96484 15.5693 5.03625 16.2385 4.63998 17.2243L5.33586 17.504L6.03173 17.7838C6.21185 17.3357 6.63394 17.0315 7.11595 17.0023L7.07061 16.2537ZM14.25 17.75L14.9615 17.5128C14.9225 17.3957 14.8931 17.3065 14.86 17.2243L14.1641 17.504L13.4683 17.7838C13.4803 17.8137 13.4931 17.8512 13.5385 17.9872L14.25 17.75ZM12.1689 16.25V17C12.3122 17 12.3518 17.0003 12.384 17.0023L12.4294 16.2537L12.4747 15.505C12.3862 15.4997 12.2923 15.5 12.1689 15.5V16.25ZM14.1641 17.504L14.86 17.2243C14.4638 16.2385 13.5352 15.5693 12.4747 15.505L12.4294 16.2537L12.384 17.0023C12.8661 17.0315 13.2881 17.3357 13.4683 17.7838L14.1641 17.504ZM9.75 16.25H9V20.75H9.75H10.5V16.25H9.75ZM9.75 20.75V21.5H16.75V20.75V20H9.75V20.75ZM9.75 20.75V20H2.75V20.75V21.5H9.75V20.75ZM15.951 4.25122L15.3653 4.71974L17.2878 7.12286L17.8735 6.65434L18.4591 6.18582L16.5366 3.7827L15.951 4.25122ZM3.54902 4.25122L2.96337 3.7827L1.04087 6.18582L1.62653 6.65434L2.21218 7.12286L4.13468 4.71974L3.54902 4.25122ZM12.8275 2.75V2H6.6725V2.75V3.5H12.8275V2.75ZM18.75 9.15312H18V12.75H18.75H19.5V9.15312H18.75ZM0.75 9.15312H0V12.75H0.75H1.5V9.15312H0.75ZM1.62653 6.65434L1.04087 6.18582C0.638793 6.68842 0.319809 7.07152 0.155022 7.54129L0.862743 7.78955L1.57046 8.0378C1.63116 7.86476 1.74621 7.70533 2.21218 7.12287L1.62653 6.65434ZM0.75 9.15312H1.5C1.5 8.40721 1.50976 8.21084 1.57046 8.0378L0.862743 7.78955L0.155022 7.54129C-0.00976491 8.01106 0 8.50948 0 9.15312H0.75ZM3.54902 4.25122L4.13468 4.71974C4.76979 3.92585 4.94917 3.72939 5.16976 3.62337L4.84487 2.94739L4.51998 2.27142C3.91917 2.56018 3.50846 3.10134 2.96337 3.7827L3.54902 4.25122ZM6.6725 2.75V2C5.79994 2 5.12079 1.98265 4.51998 2.27142L4.84487 2.94739L5.16976 3.62337C5.39036 3.51735 5.65583 3.5 6.6725 3.5V2.75ZM17.8735 6.65434L17.2878 7.12287C17.7538 7.70532 17.8688 7.86477 17.9295 8.0378L18.6373 7.78955L19.345 7.54129C19.1802 7.07153 18.8612 6.68841 18.4591 6.18582L17.8735 6.65434ZM18.75 9.15312H19.5C19.5 8.50948 19.5098 8.01106 19.345 7.54129L18.6373 7.78955L17.9295 8.0378C17.9902 8.21084 18 8.40721 18 9.15312H18.75ZM15.951 4.25122L16.5366 3.7827C15.9915 3.10135 15.5808 2.56018 14.98 2.27142L14.6551 2.94739L14.3302 3.62337C14.5508 3.72939 14.7302 3.92586 15.3653 4.71974L15.951 4.25122ZM12.8275 2.75V3.5C13.8442 3.5 14.1096 3.51735 14.3302 3.62337L14.6551 2.94739L14.98 2.27142C14.3792 1.98265 13.7001 2 12.8275 2V2.75ZM0.75 10.75V11.5H3.75V10.75V10H0.75V10.75ZM18.75 10.75V10H15.75V10.75V11.5H18.75V10.75ZM9.75 6.75H10.5V0.75H9.75H9V6.75H9.75Z" fill="#141B34"/>
</svg>
