<svg width="18" height="22" viewBox="0 0 18 22" fill="none" xmlns="http://www.w3.org/2000/svg">
<path d="M1.8368 0.00503987C1.42537 -0.042899 1.05298 0.251769 1.00504 0.663199C0.9571 1.07463 1.25177 1.44702 1.6632 1.49496L1.75 0.75L1.8368 0.00503987ZM13.391 6.49552L12.7802 6.93078L12.7803 6.93086L13.391 6.49552ZM16.1939 12.57L15.5316 12.2181V12.2181L16.1939 12.57ZM11.1846 20.398C10.9903 20.7638 11.1292 21.2179 11.495 21.4123C11.8608 21.6067 12.3148 21.4677 12.5092 21.102L11.8469 20.75L11.1846 20.398ZM16.7259 11.3401L17.4666 11.4581V11.4581L16.7259 11.3401ZM14.6595 7.44637L14.4755 8.17346L14.4787 8.17425L14.6595 7.44637ZM16.2018 8.8461L16.9221 8.63688L16.9209 8.6327L16.2018 8.8461ZM1.39899 10.3741C1.19138 10.0157 0.732511 9.8934 0.374084 10.101C0.015657 10.3086 -0.106602 10.7675 0.101011 11.1259L0.75 10.75L1.39899 10.3741ZM8.75 12.4764L9.12736 13.1246C9.44739 12.9382 9.58352 12.5462 9.44786 12.2017C9.3122 11.8571 8.94535 11.6631 8.5842 11.745L8.75 12.4764ZM6.06529 14.7011L5.49826 14.2102L6.06529 14.7011ZM5.22884 17.1526L4.47953 17.1205V17.1205L5.22884 17.1526ZM3.72717 20.3721C3.51846 20.7299 3.63931 21.1891 3.9971 21.3978C4.35489 21.6065 4.81412 21.4857 5.02283 21.1279L4.375 20.75L3.72717 20.3721ZM1.85953 5.00804C1.44976 4.94755 1.06853 5.2307 1.00804 5.64047C0.947548 6.05024 1.23069 6.43147 1.64047 6.49196L1.75 5.75L1.85953 5.00804ZM5.25 7.25L5.71337 6.66026V6.66026L5.25 7.25ZM8.5172 9.46295C8.91095 9.59153 9.33438 9.37655 9.46295 8.9828C9.59153 8.58905 9.37655 8.16562 8.9828 8.03705L8.75 8.75L8.5172 9.46295ZM1.75 0.75L1.6632 1.49496C2.94711 1.64456 5.10417 2.10284 7.26609 2.99048C9.43931 3.88276 11.5268 5.1719 12.7802 6.93078L13.391 6.49552L14.0018 6.06027C12.5117 3.96935 10.1244 2.54252 7.8358 1.60288C5.53592 0.658604 3.24422 0.169029 1.8368 0.00503987L1.75 0.75ZM16.1939 12.57L15.5316 12.2181L11.1846 20.398L11.8469 20.75L12.5092 21.102L16.8562 12.922L16.1939 12.57ZM16.1939 12.57L16.8562 12.922C17.1523 12.3648 17.3902 11.9372 17.4666 11.4581L16.7259 11.3401L15.9853 11.222C15.9574 11.3967 15.8754 11.5711 15.5316 12.2181L16.1939 12.57ZM14.6595 7.44637L14.4787 8.17425C14.9931 8.30202 15.3537 8.62426 15.4828 9.05949L16.2018 8.8461L16.9209 8.6327C16.6145 7.60064 15.7754 6.95075 14.8403 6.71849L14.6595 7.44637ZM13.391 6.49552L12.7803 6.93086C13.1717 7.48005 13.6585 7.96671 14.4755 8.17345L14.6595 7.44637L14.8435 6.71928C14.5018 6.63282 14.2816 6.45281 14.0017 6.06019L13.391 6.49552ZM16.7259 11.3401L17.4666 11.4581C17.5597 10.8737 17.4544 10.3267 17.3231 9.86648C17.2571 9.63547 17.1795 9.41017 17.1096 9.20774C17.0374 8.99858 16.9738 8.81501 16.9221 8.63688L16.2018 8.8461L15.4816 9.05531C15.5458 9.27635 15.6227 9.49742 15.6918 9.69734C15.7631 9.904 15.8276 10.0922 15.8807 10.2782C15.9874 10.652 16.0282 10.9528 15.9853 11.222L16.7259 11.3401ZM0.75 10.75L0.101011 11.1259C0.743872 12.2358 2.01032 12.9669 3.51679 13.3172C5.04088 13.6715 6.90722 13.6632 8.9158 13.2079L8.75 12.4764L8.5842 11.745C6.75717 12.1591 5.12352 12.1507 3.8565 11.8561C2.57188 11.5575 1.75613 10.9907 1.39899 10.3741L0.75 10.75ZM8.75 12.4764L8.37264 11.8283C7.74951 12.1911 6.67096 12.8557 5.49826 14.2102L6.06529 14.7011L6.63231 15.192C7.65454 14.0113 8.57801 13.4444 9.12736 13.1246L8.75 12.4764ZM5.22884 17.1526L4.47953 17.1205C4.42874 18.3042 4.25355 19.4697 3.72717 20.3721L4.375 20.75L5.02283 21.1279C5.74036 19.8979 5.9249 18.4257 5.97815 17.1848L5.22884 17.1526ZM6.06529 14.7011L5.49826 14.2102C4.78615 15.0327 4.52234 16.1228 4.47953 17.1205L5.22884 17.1526L5.97815 17.1848C6.01319 16.3681 6.22647 15.6608 6.63231 15.192L6.06529 14.7011ZM1.75 5.75C1.64047 6.49196 1.6403 6.49193 1.64013 6.49191C1.64009 6.4919 1.63993 6.49188 1.63984 6.49187C1.63966 6.49184 1.63952 6.49182 1.63939 6.4918C1.63915 6.49176 1.63903 6.49174 1.63902 6.49174C1.639 6.49174 1.63945 6.49181 1.64034 6.49195C1.64213 6.49223 1.64572 6.49279 1.65105 6.49366C1.6617 6.49541 1.67928 6.49838 1.7032 6.50273C1.75106 6.51142 1.82415 6.52557 1.91791 6.54634C2.10582 6.58798 2.37459 6.65575 2.68853 6.75864C3.32288 6.96656 4.10903 7.30733 4.78663 7.83974L5.25 7.25L5.71337 6.66026C4.84994 5.98186 3.88609 5.57264 3.1557 5.33325C2.78726 5.21249 2.46998 5.13229 2.24242 5.08187C2.12845 5.05661 2.03645 5.03871 1.97117 5.02686C1.93851 5.02093 1.91249 5.0165 1.8937 5.01342C1.88431 5.01188 1.87671 5.01068 1.87099 5.00979C1.86813 5.00934 1.86574 5.00898 1.86383 5.00869C1.86287 5.00854 1.86203 5.00841 1.86132 5.00831C1.86096 5.00825 1.86063 5.0082 1.86033 5.00816C1.86018 5.00814 1.85998 5.00811 1.85991 5.0081C1.85972 5.00807 1.85953 5.00804 1.75 5.75ZM5.25 7.25L4.78663 7.83974C5.38252 8.30793 6.2035 8.66788 6.89375 8.92578C7.58912 9.18559 8.26171 9.37953 8.5172 9.46295L8.75 8.75L8.9828 8.03705C8.65496 7.93 8.07754 7.76679 7.41875 7.52065C6.75483 7.27259 6.11748 6.97778 5.71337 6.66026L5.25 7.25Z" fill="#141B34"/>
</svg>
