<svg width="21" height="21" viewBox="0 0 21 21" fill="none" xmlns="http://www.w3.org/2000/svg">
<path d="M2.68367 16.2803C2.97656 15.9874 2.97656 15.5126 2.68367 15.2197C2.39078 14.9268 1.9159 14.9268 1.62301 15.2197L2.15334 15.75L2.68367 16.2803ZM1.28779 16.6156L1.81812 17.1459H1.81812L1.28779 16.6156ZM3.88445 19.2122L3.35412 18.6819H3.35412L3.88445 19.2122ZM5.28033 18.877C5.57322 18.5841 5.57322 18.1092 5.28033 17.8163C4.98744 17.5234 4.51256 17.5234 4.21967 17.8163L4.75 18.3467L5.28033 18.877ZM15.2197 1.62301C14.9268 1.9159 14.9268 2.39078 15.2197 2.68367C15.5126 2.97656 15.9874 2.97656 16.2803 2.68367L15.75 2.15334L15.2197 1.62301ZM16.6156 1.28779L17.1459 1.81812V1.81812L16.6156 1.28779ZM19.2122 3.88445L18.6819 3.35412V3.35412L19.2122 3.88445ZM17.8163 4.21967C17.5234 4.51256 17.5234 4.98744 17.8163 5.28033C18.1092 5.57322 18.5841 5.57322 18.877 5.28033L18.3467 4.75L17.8163 4.21967ZM10.5 7.5L11.1793 7.81796L10.5 7.5ZM7.5 10.5L7.18205 9.82073V9.82073L7.5 10.5ZM5.39745 11.5534C5.15081 11.8862 5.22064 12.3559 5.55342 12.6026C5.8862 12.8492 6.35591 12.7794 6.60255 12.4466L6 12L5.39745 11.5534ZM12.4466 6.60255C12.7794 6.35591 12.8492 5.8862 12.6026 5.55342C12.3559 5.22064 11.8862 5.15081 11.5534 5.39745L12 6L12.4466 6.60255ZM13 10L13.318 10.6793V10.6793L13 10ZM10 13L9.32073 12.682V12.682L10 13ZM8.05342 13.8974C7.72064 14.1441 7.65081 14.6138 7.89745 14.9466C8.14409 15.2794 8.6138 15.3492 8.94658 15.1026L8.5 14.5L8.05342 13.8974ZM15.1026 8.94658C15.3492 8.6138 15.2794 8.14409 14.9466 7.89745C14.6138 7.65081 14.1441 7.72064 13.8974 8.05342L14.5 8.5L15.1026 8.94658ZM15.25 8.57458L14.7197 9.10491V9.10491L15.25 8.57458ZM11.9254 5.25L12.4557 4.71967V4.71967L11.9254 5.25ZM15.25 1.92542L15.7803 1.39509V1.39509L15.25 1.92542ZM18.5746 5.25L18.0443 5.78033V5.78033L18.5746 5.25ZM13.5877 0.75V0V0V0.75ZM10.75 3.58771L11.5 3.58771V3.58771L10.75 3.58771ZM16.9123 9.75V10.5V10.5V9.75ZM19.75 6.91229H20.5V6.91229H19.75ZM8.57458 15.25L9.10491 14.7197V14.7197L8.57458 15.25ZM5.25 11.9254L4.71967 12.4557V12.4557L5.25 11.9254ZM1.92542 15.25L1.39509 15.7803H1.39509L1.92542 15.25ZM5.25 18.5746L5.78033 18.0443V18.0443L5.25 18.5746ZM0.75 13.5877H0V13.5877H0.75ZM3.58771 10.75L3.58771 11.5H3.58771L3.58771 10.75ZM9.75 16.9123H10.5V16.9123H9.75ZM6.91229 19.75V20.5V20.5V19.75ZM2.15334 15.75L1.62301 15.2197L0.757456 16.0852L1.28779 16.6156L1.81812 17.1459L2.68367 16.2803L2.15334 15.75ZM3.88445 19.2122L4.41478 19.7425L5.28033 18.877L4.75 18.3467L4.21967 17.8163L3.35412 18.6819L3.88445 19.2122ZM1.28779 19.2122L0.757456 19.7425C1.7674 20.7525 3.40484 20.7525 4.41478 19.7425L3.88445 19.2122L3.35412 18.6819C2.92996 19.106 2.24227 19.106 1.81812 18.6819L1.28779 19.2122ZM1.28779 16.6156L0.757456 16.0852C-0.252485 17.0952 -0.252485 18.7326 0.757456 19.7425L1.28779 19.2122L1.81812 18.6819C1.39396 18.2577 1.39396 17.57 1.81812 17.1459L1.28779 16.6156ZM15.75 2.15334L16.2803 2.68367L17.1459 1.81812L16.6156 1.28779L16.0852 0.757456L15.2197 1.62301L15.75 2.15334ZM19.2122 3.88445L18.6819 3.35412L17.8163 4.21967L18.3467 4.75L18.877 5.28033L19.7425 4.41478L19.2122 3.88445ZM19.2122 1.28779L18.6819 1.81812C19.106 2.24227 19.106 2.92996 18.6819 3.35412L19.2122 3.88445L19.7425 4.41478C20.7525 3.40484 20.7525 1.7674 19.7425 0.757456L19.2122 1.28779ZM16.6156 1.28779L17.1459 1.81812C17.57 1.39396 18.2577 1.39396 18.6819 1.81812L19.2122 1.28779L19.7425 0.757456C18.7326 -0.252485 17.0952 -0.252485 16.0852 0.757456L16.6156 1.28779ZM10.5 7.5L9.82073 7.18205C9.40161 8.07744 9.14659 8.50877 8.82768 8.82768C8.50877 9.14659 8.07744 9.40161 7.18205 9.82073L7.5 10.5L7.81796 11.1793C8.71739 10.7583 9.366 10.4107 9.88834 9.88834C10.4107 9.366 10.7583 8.71739 11.1793 7.81796L10.5 7.5ZM7.5 10.5L7.18205 9.82073C6.92962 9.93889 6.69475 10.1286 6.50941 10.2976C6.31394 10.4759 6.12547 10.6762 5.96508 10.8577C5.80344 11.0406 5.66284 11.2129 5.56288 11.339C5.5127 11.4024 5.47225 11.4548 5.44395 11.4918C5.42979 11.5104 5.41863 11.5251 5.41079 11.5356C5.40687 11.5408 5.40377 11.5449 5.40154 11.5479C5.40042 11.5494 5.39952 11.5506 5.39883 11.5516C5.39849 11.552 5.39821 11.5524 5.39797 11.5527C5.39786 11.5529 5.39776 11.553 5.39767 11.5531C5.39763 11.5532 5.39757 11.5533 5.39755 11.5533C5.3975 11.5534 5.39745 11.5534 6 12C6.60255 12.4466 6.60251 12.4466 6.60247 12.4467C6.60246 12.4467 6.60243 12.4467 6.60241 12.4468C6.60238 12.4468 6.60236 12.4468 6.60236 12.4468C6.60235 12.4469 6.60239 12.4468 6.60248 12.4467C6.60268 12.4464 6.60308 12.4459 6.6037 12.445C6.60492 12.4434 6.60698 12.4406 6.60984 12.4368C6.61555 12.4292 6.62443 12.4175 6.63619 12.4021C6.65973 12.3713 6.69466 12.326 6.73866 12.2705C6.82705 12.1589 6.94998 12.0084 7.08902 11.851C7.22931 11.6923 7.37868 11.535 7.5202 11.4059C7.67185 11.2676 7.77311 11.2003 7.81796 11.1793L7.5 10.5ZM10.5 7.5L11.1793 7.81796C11.2003 7.77311 11.2676 7.67185 11.4059 7.5202C11.535 7.37868 11.6923 7.22931 11.851 7.08902C12.0084 6.94998 12.1589 6.82705 12.2705 6.73866C12.326 6.69466 12.3713 6.65973 12.4021 6.63619C12.4175 6.62443 12.4293 6.61555 12.4368 6.60984C12.4406 6.60698 12.4434 6.60492 12.445 6.6037C12.4459 6.60308 12.4464 6.60268 12.4467 6.60248C12.4468 6.60239 12.4469 6.60235 12.4468 6.60236C12.4468 6.60236 12.4468 6.60238 12.4468 6.60241C12.4467 6.60243 12.4467 6.60246 12.4467 6.60247C12.4466 6.60251 12.4466 6.60255 12 6C11.5534 5.39745 11.5534 5.3975 11.5533 5.39755C11.5533 5.39757 11.5532 5.39763 11.5531 5.39767C11.553 5.39776 11.5529 5.39786 11.5527 5.39797C11.5524 5.39821 11.552 5.39849 11.5516 5.39883C11.5506 5.39952 11.5494 5.40042 11.5479 5.40154C11.5449 5.40377 11.5408 5.40687 11.5356 5.41079C11.5251 5.41863 11.5104 5.42979 11.4918 5.44395C11.4548 5.47225 11.4024 5.5127 11.339 5.56288C11.2129 5.66284 11.0406 5.80344 10.8577 5.96508C10.6762 6.12547 10.4759 6.31394 10.2976 6.50941C10.1286 6.69475 9.93889 6.92962 9.82073 7.18205L10.5 7.5ZM13 10L12.682 9.32073C11.7826 9.74175 11.134 10.0893 10.6117 10.6117C10.0893 11.134 9.74175 11.7826 9.32073 12.682L10 13L10.6793 13.318C11.0984 12.4226 11.3534 11.9912 11.6723 11.6723C11.9912 11.3534 12.4226 11.0984 13.318 10.6793L13 10ZM10 13L9.32073 12.682C9.29974 12.7269 9.23238 12.8281 9.09407 12.9798C8.96501 13.1213 8.8077 13.2707 8.64896 13.411C8.49164 13.55 8.34112 13.6729 8.22953 13.7613C8.17399 13.8053 8.12874 13.8403 8.09791 13.8638C8.08251 13.8756 8.07075 13.8845 8.06315 13.8902C8.05935 13.893 8.0566 13.8951 8.05496 13.8963C8.05413 13.8969 8.05359 13.8973 8.05333 13.8975C8.0532 13.8976 8.05314 13.8977 8.05316 13.8976C8.05317 13.8976 8.05319 13.8976 8.05324 13.8976C8.05326 13.8976 8.0533 13.8975 8.05332 13.8975C8.05337 13.8975 8.05342 13.8974 8.5 14.5C8.94658 15.1026 8.94664 15.1025 8.94671 15.1025C8.94674 15.1024 8.94682 15.1024 8.94688 15.1023C8.94699 15.1022 8.94713 15.1021 8.94729 15.102C8.9476 15.1018 8.94798 15.1015 8.94844 15.1012C8.94936 15.1005 8.95057 15.0996 8.95207 15.0985C8.95507 15.0962 8.95921 15.0931 8.96443 15.0892C8.97486 15.0814 8.98962 15.0702 9.00817 15.0561C9.04523 15.0278 9.0976 14.9873 9.16095 14.9371C9.28713 14.8372 9.45943 14.6966 9.64231 14.5349C9.8238 14.3745 10.0241 14.1861 10.2024 13.9906C10.3714 13.8053 10.5611 13.5704 10.6793 13.318L10 13ZM13 10L13.318 10.6793C13.5704 10.5611 13.8053 10.3714 13.9906 10.2024C14.1861 10.0241 14.3745 9.8238 14.5349 9.64231C14.6966 9.45943 14.8372 9.28713 14.9371 9.16095C14.9873 9.0976 15.0278 9.04523 15.0561 9.00817C15.0702 8.98962 15.0814 8.97486 15.0892 8.96443C15.0931 8.95921 15.0962 8.95507 15.0985 8.95207C15.0996 8.95057 15.1005 8.94936 15.1012 8.94844C15.1015 8.94798 15.1018 8.9476 15.102 8.94729C15.1021 8.94713 15.1022 8.94699 15.1023 8.94688C15.1024 8.94682 15.1024 8.94674 15.1025 8.94671C15.1025 8.94664 15.1026 8.94658 14.5 8.5C13.8974 8.05342 13.8975 8.05337 13.8975 8.05332C13.8975 8.0533 13.8976 8.05326 13.8976 8.05324C13.8976 8.05319 13.8976 8.05317 13.8976 8.05316C13.8977 8.05314 13.8976 8.0532 13.8975 8.05333C13.8973 8.05359 13.8969 8.05413 13.8963 8.05496C13.8951 8.0566 13.893 8.05935 13.8902 8.06315C13.8845 8.07075 13.8756 8.08251 13.8638 8.09791C13.8403 8.12874 13.8053 8.17399 13.7613 8.22953C13.6729 8.34112 13.55 8.49164 13.411 8.64896C13.2707 8.8077 13.1213 8.96501 12.9798 9.09407C12.8281 9.23238 12.7269 9.29974 12.682 9.32073L13 10ZM15.25 8.57458L15.7803 8.04425L12.4557 4.71967L11.9254 5.25L11.3951 5.78033L14.7197 9.10491L15.25 8.57458ZM15.25 1.92542L14.7197 2.45575L18.0443 5.78033L18.5746 5.25L19.1049 4.71967L15.7803 1.39509L15.25 1.92542ZM11.9254 1.92542L12.4557 2.45575C12.8625 2.04895 13.1154 1.79833 13.3228 1.64012C13.5128 1.49512 13.5742 1.5 13.5877 1.5V0.75V0C13.1144 2.98023e-07 12.7364 0.200784 12.4129 0.447588C12.1067 0.681187 11.7719 1.01827 11.3951 1.39509L11.9254 1.92542ZM15.25 1.92542L15.7803 1.39509C15.4035 1.01827 15.0687 0.681187 14.7625 0.447588C14.439 0.200784 14.0611 5.96046e-08 13.5877 0V0.75V1.5C13.6012 1.5 13.6626 1.49512 13.8526 1.64012C14.06 1.79833 14.3129 2.04895 14.7197 2.45575L15.25 1.92542ZM11.9254 5.25L12.4557 4.71967C12.0489 4.31287 11.7983 4.06 11.6401 3.85264C11.4951 3.66259 11.5 3.60123 11.5 3.58771L10.75 3.58771L10 3.58771C10 4.06106 10.2008 4.43904 10.4476 4.76251C10.6812 5.06868 11.0183 5.40352 11.3951 5.78033L11.9254 5.25ZM11.9254 1.92542L11.3951 1.39509C11.0183 1.7719 10.6812 2.10673 10.4476 2.4129C10.2008 2.73638 10 3.11435 10 3.58771L10.75 3.58771L11.5 3.58771C11.5 3.57419 11.4951 3.51282 11.6401 3.32278C11.7983 3.11542 12.0489 2.86255 12.4557 2.45575L11.9254 1.92542ZM18.5746 8.57458L18.0443 8.04425C17.6375 8.45105 17.3846 8.70167 17.1772 8.85988C16.9872 9.00488 16.9258 9 16.9123 9V9.75V10.5C17.3856 10.5 17.7636 10.2992 18.0871 10.0524C18.3933 9.81881 18.7281 9.48173 19.1049 9.10491L18.5746 8.57458ZM15.25 8.57458L14.7197 9.10491C15.0965 9.48173 15.4313 9.81881 15.7375 10.0524C16.061 10.2992 16.4389 10.5 16.9123 10.5V9.75V9C16.8988 9 16.8374 9.00488 16.6474 8.85988C16.44 8.70167 16.1871 8.45105 15.7803 8.04425L15.25 8.57458ZM18.5746 8.57458L19.1049 9.10491C19.4817 8.7281 19.8188 8.39327 20.0524 8.0871C20.2992 7.76362 20.5 7.38565 20.5 6.91229H19.75H19C19 6.92581 19.0049 6.98718 18.8599 7.17722C18.7017 7.38458 18.4511 7.63745 18.0443 8.04425L18.5746 8.57458ZM18.5746 5.25L18.0443 5.78033C18.4511 6.18713 18.7017 6.44 18.8599 6.64736C19.0049 6.83741 19 6.89877 19 6.91229H19.75H20.5C20.5 6.43894 20.2992 6.06096 20.0524 5.73749C19.8188 5.43132 19.4817 5.09648 19.1049 4.71967L18.5746 5.25ZM8.57458 15.25L9.10491 14.7197L5.78033 11.3951L5.25 11.9254L4.71967 12.4557L8.04425 15.7803L8.57458 15.25ZM1.92542 15.25L1.39509 15.7803L4.71967 19.1049L5.25 18.5746L5.78033 18.0443L2.45575 14.7197L1.92542 15.25ZM1.92542 11.9254L1.39509 11.3951C1.01827 11.7719 0.681187 12.1067 0.447588 12.4129C0.200784 12.7364 2.98023e-07 13.1144 0 13.5877H0.75H1.5C1.5 13.5742 1.49512 13.5128 1.64012 13.3228C1.79833 13.1154 2.04895 12.8625 2.45575 12.4557L1.92542 11.9254ZM1.92542 15.25L2.45575 14.7197C2.04895 14.3129 1.79833 14.06 1.64012 13.8526C1.49512 13.6626 1.5 13.6012 1.5 13.5877H0.75H0C5.96046e-08 14.0611 0.200784 14.439 0.447588 14.7625C0.681187 15.0687 1.01827 15.4035 1.39509 15.7803L1.92542 15.25ZM5.25 11.9254L5.78033 11.3951C5.40352 11.0183 5.06868 10.6812 4.76251 10.4476C4.43904 10.2008 4.06106 10 3.58771 10L3.58771 10.75L3.58771 11.5C3.60123 11.5 3.66259 11.4951 3.85264 11.6401C4.06 11.7983 4.31287 12.0489 4.71967 12.4557L5.25 11.9254ZM1.92542 11.9254L2.45575 12.4557C2.86255 12.0489 3.11542 11.7983 3.32278 11.6401C3.51282 11.4951 3.57419 11.5 3.58771 11.5L3.58771 10.75L3.58771 10C3.11435 10 2.73638 10.2008 2.4129 10.4476C2.10673 10.6812 1.7719 11.0183 1.39509 11.3951L1.92542 11.9254ZM8.57458 18.5746L9.10491 19.1049C9.48173 18.7281 9.81881 18.3933 10.0524 18.0871C10.2992 17.7636 10.5 17.3856 10.5 16.9123H9.75H9C9 16.9258 9.00488 16.9872 8.85988 17.1772C8.70167 17.3846 8.45105 17.6375 8.04425 18.0443L8.57458 18.5746ZM8.57458 15.25L8.04425 15.7803C8.45105 16.1871 8.70167 16.44 8.85988 16.6474C9.00488 16.8374 9 16.8988 9 16.9123H9.75H10.5C10.5 16.4389 10.2992 16.061 10.0524 15.7375C9.81881 15.4313 9.48173 15.0965 9.10491 14.7197L8.57458 15.25ZM8.57458 18.5746L8.04425 18.0443C7.63745 18.4511 7.38458 18.7017 7.17722 18.8599C6.98718 19.0049 6.92581 19 6.91229 19V19.75V20.5C7.38565 20.5 7.76362 20.2992 8.0871 20.0524C8.39327 19.8188 8.7281 19.4817 9.10491 19.1049L8.57458 18.5746ZM5.25 18.5746L4.71967 19.1049C5.09648 19.4817 5.43132 19.8188 5.73749 20.0524C6.06096 20.2992 6.43894 20.5 6.91229 20.5V19.75V19C6.89877 19 6.83741 19.0049 6.64736 18.8599C6.44 18.7017 6.18713 18.4511 5.78033 18.0443L5.25 18.5746Z" fill="#141B34"/>
</svg>
